<svg id="Layer_1" data-name="Layer 1" xmlns="http://www.w3.org/2000/svg" viewBox="0 0 120 120"><defs><style>.cls-1{fill:#3c9084;}.cls-2{fill:#00c1a4;stroke:#00b07c;stroke-miterlimit:10;}</style></defs><path class="cls-1" d="M17,11H35.73c-.13.22,19.41,62.14,34.5,47.31C82.22,46.52,83,47.5,83,47.5c4.5,2.59-8.36,47.53-34.5,20.27C28.1,46.45,17,11,17,11Z"/><path class="cls-2" d="M15.5,8H35c8,17.33,3.16,62,0,103-4.39-.19-9.82-.28-19.5,0C17.65,69.5,20.35,26.16,15.5,8Z"/><path class="cls-2" d="M77.5,15.5H97.94s1.46,54.91,2.92,57S114,76.62,114,76.62c-3.13,6.49-8.77,9.85-17.52,9.33,0,0-8.76-1-13.14-6.22S77.5,63.15,77.5,42.44Z"/></svg>